<?xml version="1.0" encoding="UTF-8"?>
<svg id="Layer_2" data-name="Layer 2" xmlns="http://www.w3.org/2000/svg" viewBox="0 0 182.5 133.41">
  <defs>
    <style>
      .cls-1 {
        fill: #f0ff83;
      }
    </style>
  </defs>
  <g id="Layer_1-2" data-name="Layer 1">
    <path class="cls-1" d="M180.03,3.27c-8.96-9.87-39.63,3.36-68.5,29.55-1.27,1.15-2.5,2.3-3.71,3.46-.24-.36-.5-.7-.79-1.02-8.96-9.87-39.63,3.36-68.5,29.55C9.66,91.02-6.49,120.26,2.47,130.14c8.96,9.87,39.63-3.36,68.5-29.55,1.27-1.15,2.5-2.3,3.71-3.46.24.36.5.7.79,1.02,8.96,9.87,39.63-3.36,68.5-29.55,28.87-26.2,45.01-55.44,36.05-65.31Z"/>
  </g>
</svg>