<?xml version="1.0" encoding="UTF-8"?>
<svg id="Layer_2" data-name="Layer 2" xmlns="http://www.w3.org/2000/svg" viewBox="0 0 357 25">
  <defs>
    <style>
      .cls-1 {
        fill: #e5e2bd;
      }
    </style>
  </defs>
  <g id="Layer_1-2" data-name="Layer 1">
    <path class="cls-1" d="M280,0c-13.41,0-26.02.56-37,1.54-10.98-.98-23.59-1.54-37-1.54-27.01,0-50.76,2.26-64.5,5.68C127.76,2.26,104.01,0,77,0,34.47,0,0,5.6,0,12.5s34.47,12.5,77,12.5c27.01,0,50.76-2.26,64.5-5.68,13.74,3.42,37.49,5.68,64.5,5.68,13.41,0,26.02-.56,37-1.54,10.98.98,23.59,1.54,37,1.54,42.53,0,77-5.6,77-12.5S322.53,0,280,0Z"/>
  </g>
</svg>